<svg viewBox="0 0 48 48" xmlns="http://www.w3.org/2000/svg" fill="none">
  <!-- Coffee bean / leaf shape -->
  <path d="M24 6 C14 6 6 14 6 24 C6 34 14 42 24 42 C34 42 42 34 42 24 C42 14 34 6 24 6Z" fill="#2A5249" opacity=".12"/>
  <!-- Two leaves -->
  <path d="M20 30 C20 30 16 22 20 16 C24 10 30 14 28 22 C26 28 20 30 20 30Z" fill="#2A5249"/>
  <path d="M20 30 C20 30 26 24 30 18 C34 12 38 16 34 22 C30 28 20 30 20 30Z" fill="#3d7066"/>
  <!-- Coffee bean line -->
  <path d="M20 30 C20 30 24 20 24 14" stroke="#1c3832" stroke-width="1" opacity=".5"/>
</svg>
